HIERARCHY
ROOT Pelvis
{
	OFFSET 0.000000 0.000000 0.000000
	CHANNELS 6 Xposition Yposition Zposition Xrotation Yrotation Zrotation
	JOINT LeftUpLeg_virtual
	{
		OFFSET 0.000000 0.000000 0.000000
		CHANNELS 3 Xrotation Yrotation Zrotation
		JOINT LeftUpLeg
		{
			OFFSET 18.735201 -5.666702 -4.541200
			CHANNELS 3 Xrotation Yrotation Zrotation
			JOINT LeftLeg
			{
				OFFSET -0.021200 -31.938179 0.493100
				CHANNELS 3 Xrotation Yrotation Zrotation
				JOINT LeftFoot
				{
					OFFSET 0.021200 -31.938179 -4.336299
					CHANNELS 3 Xrotation Yrotation Zrotation
					JOINT LeftToeBase
					{
						OFFSET 0.943001 -26.722000 15.023500
						CHANNELS 3 Xrotation Yrotation Zrotation
						End Site
						{
							OFFSET 0 0 0
						}
					}
				}
			}
		}
	}
	JOINT RightUpLeg_virtual
	{
		OFFSET 0.000000 0.000000 0.000000
		CHANNELS 3 Xrotation Yrotation Zrotation
		JOINT RightUpLeg
		{
			OFFSET -18.735201 -5.666702 -4.541200
			CHANNELS 3 Xrotation Yrotation Zrotation
			JOINT RightLeg
			{
				OFFSET 0.018946 -31.938133 0.493100
				CHANNELS 3 Xrotation Yrotation Zrotation
				JOINT RightFoot
				{
					OFFSET -0.018946 -31.938126 -4.336299
					CHANNELS 3 Xrotation Yrotation Zrotation
					JOINT RightToeBase
					{
						OFFSET -0.943001 -26.722004 15.023500
						CHANNELS 3 Xrotation Yrotation Zrotation
						End Site
						{
							OFFSET 0 0 0
						}
					}
				}
			}
		}
	}
	JOINT Hips_virtual
	{
		OFFSET 0.000000 0.000000 0.000000
		CHANNELS 3 Xrotation Yrotation Zrotation
		JOINT Hips
		{
			OFFSET -0.000000 -0.000000 -0.000000
			CHANNELS 3 Xrotation Yrotation Zrotation
			JOINT Spine
			{
				OFFSET 0.000000 10.199997 -0.299500
				CHANNELS 3 Xrotation Yrotation Zrotation
				JOINT Spine1
				{
					OFFSET 0.000000 11.900002 -1.516600
					CHANNELS 3 Xrotation Yrotation Zrotation
					JOINT Spine2
					{
						OFFSET 0.000000 13.600006 -2.842500
						CHANNELS 3 Xrotation Yrotation Zrotation
						JOINT Neck_virtual
						{
							OFFSET 0.000000 0.000000 0.000000
							CHANNELS 3 Xrotation Yrotation Zrotation
							JOINT Neck
							{
								OFFSET 0.000000 9.624100 -2.890100
								CHANNELS 3 Xrotation Yrotation Zrotation
								JOINT Head
								{
									OFFSET 0.000000 14.068802 -1.351900
									CHANNELS 3 Xrotation Yrotation Zrotation
									End Site
									{
										OFFSET 0 0 0
									}
								}
							}
						}
						JOINT LeftShoulder_virtual
						{
							OFFSET 0.000000 0.000000 0.000000
							CHANNELS 3 Xrotation Yrotation Zrotation
							JOINT LeftShoulder
							{
								OFFSET 15.263000 10.923401 -0.547700
								CHANNELS 3 Xrotation Yrotation Zrotation
								JOINT LeftArm
								{
									OFFSET 25.438599 -2.830597 -13.032500
									CHANNELS 3 Xrotation Yrotation Zrotation
									JOINT LeftForeArm
									{
										OFFSET 29.960503 0.000000 0.000000
										CHANNELS 3 Xrotation Yrotation Zrotation
										JOINT LeftHand
										{
											OFFSET 27.849251 0.000000 0.000000
											CHANNELS 3 Xrotation Yrotation Zrotation
											End Site
											{
												OFFSET 0 0 0
											}
										}
									}
								}
							}
						}
						JOINT RightShoulder_virtual
						{
							OFFSET 0.000000 0.000000 0.000000
							CHANNELS 3 Xrotation Yrotation Zrotation
							JOINT RightShoulder
							{
								OFFSET -15.263000 10.923401 -0.547700
								CHANNELS 3 Xrotation Yrotation Zrotation
								JOINT RightArm
								{
									OFFSET -25.438599 -2.830597 -13.032500
									CHANNELS 3 Xrotation Yrotation Zrotation
									JOINT RightForeArm
									{
										OFFSET -29.960503 0.000000 0.000000
										CHANNELS 3 Xrotation Yrotation Zrotation
										JOINT RightHand
										{
											OFFSET -27.849251 0.000000 0.000000
											CHANNELS 3 Xrotation Yrotation Zrotation
											End Site
											{
												OFFSET 0 0 0
											}
										}
									}
								}
							}
						}
					}
				}
			}
		}
	}
}
MOTION
Frames: 13
Frame Time: 0.03333333
1.080722 87.914337 9.124426 0.000000 0.000000 0.000000 -3.864593 3.699747 -5.805690 -47.884496 11.725979 12.984159 50.112490 -6.129593 5.864697 -0.597064 -9.843275 -0.490929 0.000000 0.000000 0.000000 -7.512050 -22.359148 5.168184 -43.129530 -10.275458 -10.790577 43.055781 5.888483 -10.164937 -8.300023 8.230343 -1.240915 0.000000 0.000000 0.000000 -3.557745 -0.100457 -0.199073 -13.695615 3.266395 -0.729300 11.618965 -0.643580 0.168951 5.296626 0.102243 -0.034706 0.000000 0.000000 0.000000 12.706621 0.464477 -0.905892 3.925758 0.434526 -0.312874 0.000000 0.000000 0.000000 7.301121 1.412510 -1.215354 3.293089 -0.487660 -12.139976 16.144581 -28.176933 -44.560605 20.931494 -59.042409 10.896473 0.000000 0.000000 0.000000 7.707956 -0.419207 0.616357 3.595581 2.602469 7.928364 7.893597 16.808477 47.898259 8.850620 60.929426 -1.223796 0.000000 0.000000 0.000000 
1.065841 87.992157 9.173505 0.000000 0.000000 0.000000 -3.908852 4.014691 -5.872376 -47.964525 11.818292 12.943437 50.221490 -6.139164 5.992624 -0.480824 -9.922130 -0.305199 0.000000 0.000000 0.000000 -7.598202 -22.976654 5.256570 -43.299895 -10.470424 -10.708023 43.083809 5.958654 -10.265811 -8.227140 8.370566 -1.387993 0.000000 0.000000 0.000000 -3.575137 -0.063553 -0.198214 -13.785524 3.281094 -0.770132 11.652406 -0.684418 0.174673 5.323228 0.096038 -0.016235 0.000000 0.000000 0.000000 12.723382 0.455487 -0.901995 3.918358 0.430969 -0.302325 0.000000 0.000000 0.000000 7.305283 1.405225 -1.224958 3.241546 -0.478246 -12.235117 16.332572 -28.279138 -44.392975 21.192690 -59.217795 11.175929 0.000000 0.000000 0.000000 7.746499 -0.423464 0.605168 3.579475 2.429299 7.934546 7.956388 16.660174 47.891456 8.809909 60.966050 -1.179649 0.000000 0.000000 0.000000 
1.039926 88.135170 9.270043 0.000000 0.000000 0.000000 -3.998577 4.598533 -5.993081 -48.122371 11.986513 12.869853 50.416963 -6.156137 6.220353 -0.274751 -10.061388 0.024574 0.000000 0.000000 0.000000 -7.738691 -24.076094 5.427358 -43.591350 -10.825220 -10.548040 43.138642 6.084041 -10.442637 -8.094730 8.619842 -1.645349 0.000000 0.000000 0.000000 -3.602559 -0.004255 -0.194131 -13.961512 3.333727 -0.853957 11.708698 -0.757285 0.187992 5.374941 0.080584 0.016847 0.000000 0.000000 0.000000 12.753197 0.441436 -0.893297 3.904722 0.423197 -0.282181 0.000000 0.000000 0.000000 7.316709 1.388837 -1.242229 3.147240 -0.464966 -12.409487 16.700393 -28.455338 -44.086993 21.678633 -59.556080 11.691642 0.000000 0.000000 0.000000 7.820420 -0.430217 0.587479 3.544427 2.113401 7.948699 8.062098 16.368147 47.893775 8.728933 61.006894 -1.084758 0.000000 0.000000 0.000000 
1.009754 88.321266 9.408916 0.000000 0.000000 0.000000 -4.133514 5.376654 -6.146751 -48.351309 12.204438 12.776556 50.657556 -6.176572 6.501415 -0.025279 -10.230341 0.429875 0.000000 0.000000 0.000000 -7.884050 -25.435910 5.668345 -43.925056 -11.280338 -10.321814 43.217185 6.241078 -10.655965 -7.925773 8.928545 -1.953711 0.000000 0.000000 0.000000 -3.626742 0.057909 -0.182457 -14.213950 3.459030 -0.980555 11.770353 -0.846792 0.210550 5.446680 0.051993 0.057984 0.000000 0.000000 0.000000 12.790059 0.428578 -0.878875 3.886819 0.410443 -0.254310 0.000000 0.000000 0.000000 7.338850 1.361195 -1.263223 3.024645 -0.456298 -12.635725 17.224554 -28.657698 -43.695401 22.324060 -60.032042 12.368630 0.000000 0.000000 0.000000 7.923074 -0.436523 0.570261 3.486672 1.705121 7.973063 8.179870 15.944047 47.929483 8.609332 61.004224 -0.931271 0.000000 0.000000 0.000000 
0.983117 88.524117 9.580083 0.000000 0.000000 0.000000 -4.308440 6.268894 -6.310162 -48.637217 12.444924 12.678125 50.891466 -6.195351 6.785736 0.213265 -10.395335 0.838019 0.000000 0.000000 0.000000 -7.987916 -26.822587 5.960233 -44.221756 -11.768717 -10.047505 43.312186 6.406358 -10.866222 -7.748082 9.246363 -2.252082 0.000000 0.000000 0.000000 -3.631537 0.111267 -0.157748 -14.525640 3.686202 -1.141976 11.818831 -0.935026 0.241413 5.527854 0.008467 0.099897 0.000000 0.000000 0.000000 12.827777 0.422935 -0.858818 3.866827 0.392522 -0.221346 0.000000 0.000000 0.000000 7.372553 1.321764 -1.282230 2.889461 -0.459522 -12.881888 17.857299 -28.833500 -43.284425 23.046443 -60.609022 13.117197 0.000000 0.000000 0.000000 8.044542 -0.439286 0.559526 3.404257 1.259238 8.008659 8.279905 15.409458 48.020932 8.454853 60.919898 -0.717093 0.000000 0.000000 0.000000 
0.966417 88.718712 9.769980 0.000000 0.000000 0.000000 -4.511439 7.204431 -6.463225 -48.957659 12.685906 12.587091 51.069482 -6.206818 7.032906 0.393770 -10.528227 1.192535 0.000000 0.000000 0.000000 -8.024071 -28.054602 6.276231 -44.426737 -12.231765 -9.749637 43.408629 6.563180 -11.044772 -7.591163 9.535866 -2.495082 0.000000 0.000000 0.000000 -3.602498 0.160500 -0.115199 -14.872414 4.025100 -1.320946 11.840346 -1.006323 0.276525 5.603270 -0.047902 0.136751 0.000000 0.000000 0.000000 12.861951 0.427892 -0.834587 3.846652 0.370212 -0.186371 0.000000 0.000000 0.000000 7.415382 1.272817 -1.292637 2.754917 -0.476995 -13.117789 18.523360 -28.940526 -42.921486 23.757625 -61.242871 13.848900 0.000000 0.000000 0.000000 8.173153 -0.436443 0.558169 3.299562 0.821787 8.054392 8.342130 14.796754 48.180373 8.271772 60.744062 -0.450368 0.000000 0.000000 0.000000 
0.962382 88.885513 9.965787 0.000000 0.000000 0.000000 -4.724864 8.123542 -6.591778 -49.283660 12.911555 12.511812 51.159012 -6.205579 7.219559 0.489503 -10.611493 1.463919 0.000000 0.000000 0.000000 -7.991370 -29.033799 6.585496 -44.520051 -12.629917 -9.455401 43.482145 6.703327 -11.177926 -7.484151 9.777132 -2.660844 0.000000 0.000000 0.000000 -3.531867 0.224938 -0.052804 -15.226109 4.462122 -1.494270 11.829612 -1.051142 0.310367 5.657516 -0.111677 0.165606 0.000000 0.000000 0.000000 12.891296 0.443038 -0.808510 3.827890 0.345124 -0.152418 0.000000 0.000000 0.000000 7.463446 1.219218 -1.288344 2.630036 -0.504853 -13.318985 19.129253 -28.957547 -42.662823 24.374350 -61.887518 14.487649 0.000000 0.000000 0.000000 8.298348 -0.427885 0.565732 3.180495 0.423360 8.107204 8.359274 14.146752 48.406558 8.068890 60.498442 -0.149193 0.000000 0.000000 0.000000 
0.968942 89.012344 10.160151 0.000000 0.000000 0.000000 -4.927935 8.972388 -6.688412 -49.583499 13.110559 12.455723 51.153425 -6.187518 7.340001 0.500078 -10.639532 1.649033 0.000000 0.000000 0.000000 -7.905796 -29.741246 6.861100 -44.510714 -12.945801 -9.188347 43.502329 6.824758 -11.265086 -7.452776 9.964709 -2.750092 0.000000 0.000000 0.000000 -3.421940 0.327594 0.026941 -15.559832 4.965734 -1.639284 11.790432 -1.067564 0.338453 5.680695 -0.176527 0.186572 0.000000 0.000000 0.000000 12.918218 0.464692 -0.782989 3.812262 0.319218 -0.121975 0.000000 0.000000 0.000000 7.513779 1.167137 -1.265224 2.519625 -0.534812 -13.467924 19.584294 -28.885857 -42.543298 24.827994 -62.500083 14.976096 0.000000 0.000000 0.000000 8.413662 -0.415656 0.579587 3.059944 0.079026 8.162719 8.336777 13.504383 48.684441 7.858413 60.223841 0.161486 0.000000 0.000000 0.000000 
0.980133 89.094368 10.354110 0.000000 0.000000 0.000000 -5.099355 9.700279 -6.752242 -49.826558 13.274623 12.417507 51.072316 -6.150881 7.401914 0.447980 -10.616984 1.762597 0.000000 0.000000 0.000000 -7.786153 -30.211515 7.088965 -44.421136 -13.181452 -8.962027 43.441960 6.927629 -11.314262 -7.513633 10.101430 -2.780075 0.000000 0.000000 0.000000 -3.284727 0.481400 0.116843 -15.854305 5.497304 -1.739118 11.733195 -1.060271 0.358871 5.671870 -0.238051 0.201533 0.000000 0.000000 0.000000 12.948229 0.487632 -0.760059 3.802053 0.294232 -0.096653 0.000000 0.000000 0.000000 7.565287 1.122481 -1.222120 2.425106 -0.557403 -13.553486 19.824375 -28.742799 -42.571538 25.073249 -63.043650 15.279198 0.000000 0.000000 0.000000 8.518358 -0.403301 0.596296 2.953332 -0.207895 8.215696 8.292399 12.912882 48.986479 7.657704 59.960626 0.453292 0.000000 0.000000 0.000000 
0.988458 89.133034 10.556287 0.000000 0.000000 0.000000 -5.219611 10.264974 -6.787986 -49.987016 13.398856 12.392123 50.952508 -6.097009 7.419924 0.367614 -10.555364 1.826062 0.000000 0.000000 0.000000 -7.642441 -30.502259 7.272128 -44.271872 -13.351936 -8.777014 43.287615 7.011147 -11.337801 -7.668344 10.193144 -2.777230 0.000000 0.000000 0.000000 -3.137362 0.681541 0.206808 -16.104118 6.020446 -1.784887 11.670457 -1.037727 0.371975 5.638322 -0.295317 0.212251 0.000000 0.000000 0.000000 12.988239 0.506941 -0.741497 3.799898 0.271258 -0.077185 0.000000 0.000000 0.000000 7.617940 1.089808 -1.160992 2.345643 -0.564608 -13.570027 19.827628 -28.552182 -42.731303 25.093878 -63.489040 15.385894 0.000000 0.000000 0.000000 8.616765 -0.394647 0.612489 2.875013 -0.441088 8.260156 8.254920 12.407901 49.275696 7.490040 59.733160 0.697169 0.000000 0.000000 0.000000 
0.987606 89.134865 10.779072 0.000000 0.000000 0.000000 -5.273948 10.642574 -6.804073 -50.047839 13.483015 12.372630 50.834253 -6.030338 7.409765 0.291869 -10.469206 1.858718 0.000000 0.000000 0.000000 -7.473065 -30.671402 7.427569 -44.074261 -13.478052 -8.622956 43.045771 7.072909 -11.349135 -7.901694 10.246275 -2.769955 0.000000 0.000000 0.000000 -2.995754 0.907099 0.286779 -16.320180 6.504973 -1.775803 11.612163 -1.009354 0.379028 5.591253 -0.350300 0.218994 0.000000 0.000000 0.000000 13.043966 0.519136 -0.729027 3.807891 0.250556 -0.063606 0.000000 0.000000 0.000000 7.671370 1.071874 -1.086352 2.279393 -0.550549 -13.517018 19.615380 -28.336643 -42.988657 24.904167 -63.817039 15.309307 0.000000 0.000000 0.000000 8.715593 -0.392585 0.625245 2.834536 -0.627418 8.289804 8.258984 12.012038 49.511741 7.381702 59.545002 0.866753 0.000000 0.000000 0.000000 
0.974342 89.110359 11.032733 0.000000 0.000000 0.000000 -5.256261 10.835661 -6.809616 -50.005205 13.531885 12.352873 50.748463 -5.957734 7.384421 0.241654 -10.372901 1.872870 0.000000 0.000000 0.000000 -7.270591 -30.766334 7.577975 -43.833176 -13.580212 -8.484190 42.740752 7.110367 -11.360497 -8.186235 10.267525 -2.782314 0.000000 0.000000 0.000000 -2.869478 1.131262 0.349486 -16.527390 6.926409 -1.718691 11.562599 -0.983422 0.380786 5.540685 -0.405953 0.220421 0.000000 0.000000 0.000000 13.117402 0.522384 -0.724127 3.826375 0.231653 -0.055435 0.000000 0.000000 0.000000 7.724162 1.069610 -1.004157 2.224653 -0.511002 -13.399292 19.239779 -28.114561 -43.301801 24.545275 -64.022027 15.084596 0.000000 0.000000 0.000000 8.820461 -0.398382 0.632367 2.834132 -0.774726 8.299183 8.335259 11.730070 49.660161 7.354059 59.384164 0.944010 0.000000 0.000000 0.000000 
0.949320 89.072479 11.319485 0.000000 0.000000 0.000000 -5.172211 10.872970 -6.811501 -49.871535 13.553729 12.329846 50.709537 -5.887331 7.352623 0.221547 -10.278676 1.873207 0.000000 0.000000 0.000000 -7.031350 -30.821553 7.742577 -43.555379 -13.674192 -8.346249 42.405547 7.123237 -11.381122 -8.491579 10.264415 -2.829177 0.000000 0.000000 0.000000 -2.760699 1.333422 0.391821 -16.756443 7.265481 -1.628032 11.519587 -0.966095 0.377108 5.492442 -0.464167 0.214524 0.000000 0.000000 0.000000 13.205522 0.516255 -0.727375 3.853259 0.213672 -0.051715 0.000000 0.000000 0.000000 7.774357 1.082183 -0.920513 2.180630 -0.443577 -13.226952 18.766218 -27.900705 -43.630473 24.077173 -64.115464 14.763471 0.000000 0.000000 0.000000 8.933210 -0.411712 0.632694 2.868143 -0.891127 8.285430 8.498566 11.546852 49.701774 7.414035 59.232090 0.925491 0.000000 0.000000 0.000000 
